<svg width="24" height="24" viewBox="0 0 24 24" fill="none" xmlns="http://www.w3.org/2000/svg">
<path d="M9.29012 21C8.46394 20.996 7.6468 20.8277 6.88626 20.505C6.12573 20.1822 5.43698 19.7114 4.86012 19.12C4.28758 18.5773 3.82767 17.9271 3.5067 17.2065C3.18573 16.486 3.01 15.7092 2.98956 14.9206C2.96913 14.132 3.10439 13.3472 3.38761 12.6109C3.67084 11.8747 4.09646 11.2015 4.64012 10.63L12.0001 3.19997C12.3932 2.80765 12.8616 2.49905 13.3772 2.2928C13.8929 2.08655 14.4449 1.98694 15.0001 1.99997C15.5948 2.002 16.1832 2.12241 16.7309 2.35419C17.2786 2.58597 17.7746 2.92448 18.1901 3.34997C19.0171 4.14621 19.4967 5.23649 19.5248 6.38415C19.5529 7.53181 19.1272 8.64424 18.3401 9.47997L10.9401 16.91C10.7031 17.1486 10.4211 17.3378 10.1103 17.4665C9.79963 17.5953 9.46645 17.661 9.13012 17.66C8.76679 17.6605 8.40705 17.5881 8.07214 17.4473C7.73722 17.3065 7.43391 17.1 7.18012 16.84C6.67285 16.3488 6.37989 15.6773 6.36491 14.9714C6.34993 14.2655 6.61414 13.5822 7.10012 13.07L13.9301 6.20997C14.1245 6.08088 14.3579 6.02382 14.5899 6.04869C14.8219 6.07355 15.038 6.17878 15.2006 6.34613C15.3632 6.51349 15.4621 6.73244 15.4803 6.96508C15.4985 7.19772 15.4348 7.42939 15.3001 7.61997L8.47012 14.48C8.35623 14.6172 8.30079 14.7936 8.31575 14.9713C8.33072 15.149 8.41488 15.3137 8.55012 15.43C8.69083 15.5717 8.88052 15.654 9.08012 15.66C9.15405 15.661 9.22747 15.6474 9.29612 15.62C9.36477 15.5925 9.42731 15.5517 9.48012 15.5L16.8701 8.06997C17.2849 7.60915 17.5017 7.0036 17.4737 6.38422C17.4456 5.76484 17.1749 5.18138 16.7201 4.75997C16.2977 4.32141 15.7233 4.06143 15.115 4.03353C14.5067 4.00563 13.9109 4.21193 13.4501 4.60997L6.06012 12C5.70076 12.3859 5.42128 12.8392 5.23775 13.3336C5.05421 13.828 4.97025 14.3538 4.9907 14.8807C5.01115 15.4077 5.13559 15.9254 5.35688 16.4041C5.57817 16.8828 5.89194 17.313 6.28012 17.67C6.6694 18.0735 7.13519 18.3954 7.65028 18.6169C8.16538 18.8384 8.71944 18.955 9.28012 18.96C9.76354 18.9639 10.243 18.8723 10.6909 18.6904C11.1388 18.5085 11.5463 18.2399 11.8901 17.9L19.2801 10.47C19.3727 10.3767 19.4827 10.3026 19.604 10.2519C19.7252 10.2012 19.8552 10.1749 19.9866 10.1744C20.118 10.174 20.2482 10.1994 20.3697 10.2492C20.4913 10.2991 20.6019 10.3724 20.6951 10.465C20.7884 10.5576 20.8624 10.6676 20.9132 10.7888C20.9639 10.91 20.9902 11.04 20.9907 11.1714C20.9911 11.3028 20.9657 11.433 20.9159 11.5546C20.866 11.6762 20.7927 11.7867 20.7001 11.88L13.3101 19.31C12.7854 19.8439 12.1598 20.2683 11.4697 20.5584C10.7796 20.8486 10.0387 20.9986 9.29012 21Z" fill="#88898A"/>
</svg>
