<svg width="22" height="22" viewBox="0 0 22 22" fill="none" xmlns="http://www.w3.org/2000/svg">
<path d="M1.58549 0.57922C1.45994 0.516427 1.31929 0.490129 1.17953 0.503318C1.03977 0.516508 0.906525 0.568656 0.79494 0.653829C0.683354 0.739003 0.597913 0.853784 0.548334 0.985115C0.498755 1.11645 0.48703 1.25906 0.514491 1.39672L2.61899 8.67172C2.65823 8.80729 2.73493 8.92904 2.84027 9.02298C2.94562 9.11691 3.07532 9.17921 3.21449 9.20272L11.7495 10.6322C12.1515 10.7117 12.1515 11.2877 11.7495 11.3672L3.21449 12.7967C3.07532 12.8202 2.94562 12.8825 2.84027 12.9765C2.73493 13.0704 2.65823 13.1921 2.61899 13.3277L0.514491 20.6027C0.48703 20.7404 0.498755 20.883 0.548334 21.0143C0.597913 21.1457 0.683354 21.2604 0.79494 21.3456C0.906525 21.4308 1.03977 21.4829 1.17953 21.4961C1.31929 21.5093 1.45994 21.483 1.58549 21.4202L21.0855 11.6702C21.2099 11.6079 21.3145 11.5121 21.3876 11.3937C21.4607 11.2753 21.4994 11.1389 21.4994 10.9997C21.4994 10.8606 21.4607 10.7241 21.3876 10.6057C21.3145 10.4873 21.2099 10.3916 21.0855 10.3292L1.58549 0.57922Z" fill="#FD7B5C"/>
</svg>
